<svg xmlns="http://www.w3.org/2000/svg" xmlns:xlink="http://www.w3.org/1999/xlink" width="1200" zoomAndPan="magnify" viewBox="0 0 900 149.999998" height="200" preserveAspectRatio="xMidYMid meet" version="1.0"><defs><g/></defs><g fill="#ec1d27" fill-opacity="1"><g transform="translate(4.635769, 115.499995)"><g><path d="M 39.332031 -30.875 L 39.332031 -18.5 C 39.207031 -14.824219 38.472656 -11.519531 37.125 -8.699219 C 36.023438 -6.25 34.308594 -3.921875 31.855469 -2.082031 C 29.40625 -0.121094 26.097656 0.980469 21.6875 0.980469 C 17.277344 0.980469 13.84375 -0.121094 11.394531 -2.082031 C 8.945312 -3.921875 7.351562 -6.25 6.25 -8.699219 C 4.902344 -11.519531 4.164062 -14.824219 4.042969 -18.5 L 4.042969 -71.554688 C 4.164062 -75.109375 4.902344 -78.417969 6.25 -81.234375 C 7.351562 -83.6875 8.945312 -86.136719 11.394531 -87.976562 C 13.84375 -89.8125 17.277344 -91.039062 21.6875 -91.039062 C 26.097656 -91.039062 29.40625 -89.8125 31.855469 -87.976562 C 34.308594 -86.136719 36.023438 -83.6875 37.125 -81.234375 C 38.472656 -78.417969 39.207031 -75.109375 39.332031 -71.554688 L 39.332031 -59.179688 L 26.957031 -59.179688 L 26.957031 -71.554688 C 26.957031 -74.007812 26.34375 -75.722656 24.996094 -77.191406 C 24.382812 -77.804688 23.28125 -78.171875 21.933594 -78.171875 C 19.605469 -78.171875 18.5 -76.457031 17.890625 -74.863281 C 17.519531 -73.882812 17.398438 -72.78125 17.277344 -71.554688 L 17.277344 -18.5 C 17.398438 -15.929688 18.132812 -14.214844 19.359375 -12.867188 C 19.972656 -12.253906 20.828125 -11.886719 21.933594 -11.886719 C 24.75 -11.886719 25.851562 -13.355469 26.464844 -15.195312 C 26.832031 -16.050781 26.957031 -17.152344 26.957031 -18.5 L 26.957031 -30.875 Z M 39.332031 -30.875 "/></g></g></g><g fill="#ec1d27" fill-opacity="1"><g transform="translate(66.755303, 115.499995)"><g><path d="M 39.332031 -18.5 C 39.207031 -14.824219 38.472656 -11.519531 37.125 -8.699219 C 36.023438 -6.25 34.308594 -3.921875 31.855469 -2.082031 C 29.40625 -0.121094 26.097656 0.980469 21.6875 0.980469 C 17.277344 0.980469 13.84375 -0.121094 11.394531 -2.082031 C 8.945312 -3.921875 7.351562 -6.25 6.25 -8.699219 C 4.902344 -11.519531 4.164062 -14.824219 4.042969 -18.5 L 4.042969 -71.554688 C 4.164062 -75.109375 4.902344 -78.417969 6.25 -81.234375 C 7.351562 -83.6875 8.945312 -86.136719 11.394531 -87.976562 C 13.84375 -89.8125 17.277344 -91.039062 21.6875 -91.039062 C 26.097656 -91.039062 29.40625 -89.8125 31.855469 -87.976562 C 34.308594 -86.136719 36.023438 -83.6875 37.125 -81.234375 C 38.472656 -78.417969 39.207031 -75.109375 39.332031 -71.554688 Z M 26.097656 -71.554688 C 26.097656 -74.007812 25.609375 -75.722656 24.382812 -77.191406 C 23.769531 -77.804688 22.789062 -78.171875 21.6875 -78.171875 C 19.359375 -78.171875 18.257812 -76.457031 17.765625 -74.863281 C 17.398438 -73.882812 17.277344 -72.78125 17.277344 -71.554688 L 17.277344 -18.5 C 17.277344 -15.929688 17.890625 -14.214844 19.113281 -12.867188 C 19.726562 -12.253906 20.585938 -11.886719 21.6875 -11.886719 C 24.015625 -11.886719 25.117188 -13.355469 25.609375 -15.195312 C 25.976562 -16.050781 26.097656 -17.152344 26.097656 -18.5 Z M 26.097656 -71.554688 "/></g></g></g><g fill="#ec1d27" fill-opacity="1"><g transform="translate(129.854988, 115.499995)"><g><path d="M 4.902344 0 L 4.902344 -90.058594 L 15.316406 -90.058594 C 27.570312 -90.058594 34.183594 -87.605469 37.738281 -80.746094 C 41.167969 -73.882812 41.660156 -62.613281 41.660156 -44.96875 C 41.660156 -27.324219 41.167969 -16.171875 37.738281 -9.3125 C 34.183594 -2.449219 27.570312 0 15.316406 0 Z M 18.132812 -13.234375 C 22.667969 -13.234375 25.242188 -13.722656 26.589844 -18.132812 C 27.199219 -20.21875 27.691406 -23.402344 27.8125 -27.691406 C 27.9375 -31.980469 27.9375 -37.738281 27.9375 -45.089844 C 27.9375 -52.441406 27.9375 -58.199219 27.8125 -62.488281 C 27.691406 -66.65625 27.199219 -69.839844 26.589844 -72.046875 C 25.242188 -76.335938 22.667969 -76.824219 18.132812 -76.824219 Z M 18.132812 -13.234375 "/></g></g></g><g fill="#ec1d27" fill-opacity="1"><g transform="translate(195.160031, 115.499995)"><g><path d="M 4.902344 -90.058594 L 35.164062 -90.058594 L 35.164062 -76.457031 L 18.132812 -76.457031 L 18.132812 -52.808594 L 30.386719 -52.808594 L 30.386719 -38.351562 L 18.132812 -38.351562 L 18.132812 -13.601562 L 35.164062 -13.601562 L 35.164062 0 L 4.902344 0 Z M 4.902344 -90.058594 "/></g></g></g><g fill="#000000" fill-opacity="1"><g transform="translate(252.49904, 115.499995)"><g/></g></g><g fill="#000000" fill-opacity="1"><g transform="translate(291.09482, 115.499995)"><g><path d="M 48.644531 -39.085938 C 48.519531 -37.492188 48.152344 -33.941406 47.296875 -30.019531 C 46.4375 -26.097656 45.089844 -21.566406 43.128906 -17.644531 C 44.476562 -16.171875 45.582031 -15.070312 46.558594 -14.457031 C 47.539062 -13.722656 48.277344 -13.234375 48.644531 -13.109375 L 48.644531 0.980469 C 48.277344 0.980469 47.785156 0.859375 46.929688 0.488281 C 45.335938 -0.121094 43.007812 -1.59375 40.1875 -3.675781 C 38.839844 -4.65625 37.492188 -5.882812 36.144531 -7.351562 C 31.734375 -2.328125 26.589844 0.980469 21.074219 0.980469 C 15.804688 0.980469 11.273438 -1.347656 8.085938 -5.023438 C 4.902344 -8.699219 2.941406 -13.476562 2.941406 -18.871094 C 2.941406 -29.039062 8.085938 -37.25 13.109375 -44.96875 C 8.820312 -53.789062 6.738281 -62 6.738281 -71.433594 C 6.863281 -78.785156 8.945312 -83.929688 13.355469 -87.976562 C 15.5625 -90.058594 18.746094 -91.039062 22.914062 -91.039062 C 31.246094 -91.039062 35.164062 -86.136719 37.003906 -81.234375 C 39.085938 -75.476562 39.945312 -67.757812 35.289062 -59.058594 C 32.960938 -54.648438 30.019531 -50.113281 26.464844 -45.457031 C 30.386719 -36.511719 32.960938 -31.855469 35.289062 -28.425781 C 36.878906 -32.960938 37.738281 -38.964844 38.105469 -41.046875 Z M 27.570312 -71.800781 C 27.691406 -74.863281 27.199219 -77.316406 25.851562 -79.152344 C 25.242188 -80.011719 24.261719 -80.5 22.914062 -80.5 C 20.339844 -80.5 19.113281 -78.296875 18.625 -75.96875 C 18.011719 -73.148438 18.011719 -68.738281 19.113281 -64.203125 C 19.605469 -61.875 20.460938 -59.425781 21.566406 -56.730469 C 24.503906 -61.265625 27.570312 -67.023438 27.570312 -71.800781 Z M 29.160156 -15.683594 C 25.851562 -20.953125 22.546875 -26.34375 18.746094 -33.328125 C 17.398438 -31.246094 16.664062 -28.792969 16.050781 -25.363281 C 15.4375 -21.808594 15.316406 -16.417969 17.519531 -13.109375 C 18.625 -11.394531 19.972656 -10.539062 21.6875 -10.539062 C 24.996094 -10.539062 26.832031 -12.742188 29.160156 -15.683594 Z M 29.160156 -15.683594 "/></g></g></g><g fill="#000000" fill-opacity="1"><g transform="translate(361.913237, 115.499995)"><g><path d="M 48.644531 -39.085938 C 48.519531 -37.492188 48.152344 -33.941406 47.296875 -30.019531 C 46.4375 -26.097656 45.089844 -21.566406 43.128906 -17.644531 C 44.476562 -16.171875 45.582031 -15.070312 46.558594 -14.457031 C 47.539062 -13.722656 48.277344 -13.234375 48.644531 -13.109375 L 48.644531 0.980469 C 48.277344 0.980469 47.785156 0.859375 46.929688 0.488281 C 45.335938 -0.121094 43.007812 -1.59375 40.1875 -3.675781 C 38.839844 -4.65625 37.492188 -5.882812 36.144531 -7.351562 C 31.734375 -2.328125 26.589844 0.980469 21.074219 0.980469 C 15.804688 0.980469 11.273438 -1.347656 8.085938 -5.023438 C 4.902344 -8.699219 2.941406 -13.476562 2.941406 -18.871094 C 2.941406 -29.039062 8.085938 -37.25 13.109375 -44.96875 C 8.820312 -53.789062 6.738281 -62 6.738281 -71.433594 C 6.863281 -78.785156 8.945312 -83.929688 13.355469 -87.976562 C 15.5625 -90.058594 18.746094 -91.039062 22.914062 -91.039062 C 31.246094 -91.039062 35.164062 -86.136719 37.003906 -81.234375 C 39.085938 -75.476562 39.945312 -67.757812 35.289062 -59.058594 C 32.960938 -54.648438 30.019531 -50.113281 26.464844 -45.457031 C 30.386719 -36.511719 32.960938 -31.855469 35.289062 -28.425781 C 36.878906 -32.960938 37.738281 -38.964844 38.105469 -41.046875 Z M 27.570312 -71.800781 C 27.691406 -74.863281 27.199219 -77.316406 25.851562 -79.152344 C 25.242188 -80.011719 24.261719 -80.5 22.914062 -80.5 C 20.339844 -80.5 19.113281 -78.296875 18.625 -75.96875 C 18.011719 -73.148438 18.011719 -68.738281 19.113281 -64.203125 C 19.605469 -61.875 20.460938 -59.425781 21.566406 -56.730469 C 24.503906 -61.265625 27.570312 -67.023438 27.570312 -71.800781 Z M 29.160156 -15.683594 C 25.851562 -20.953125 22.546875 -26.34375 18.746094 -33.328125 C 17.398438 -31.246094 16.664062 -28.792969 16.050781 -25.363281 C 15.4375 -21.808594 15.316406 -16.417969 17.519531 -13.109375 C 18.625 -11.394531 19.972656 -10.539062 21.6875 -10.539062 C 24.996094 -10.539062 26.832031 -12.742188 29.160156 -15.683594 Z M 29.160156 -15.683594 "/></g></g></g><g fill="#ffffff" fill-opacity="1"><g transform="translate(432.721682, 115.499995)"><g/></g></g><g fill="#ec1d27" fill-opacity="1"><g transform="translate(471.311527, 115.499995)"><g><path d="M 4.902344 -90.058594 L 18.132812 -90.058594 C 23.894531 -90.058594 29.652344 -88.585938 34.0625 -84.421875 C 38.472656 -80.253906 41.414062 -73.394531 41.414062 -63.101562 C 41.414062 -52.808594 38.472656 -46.070312 34.0625 -41.90625 C 29.652344 -37.738281 23.894531 -36.023438 18.132812 -36.023438 L 18.132812 0 L 4.902344 0 Z M 18.132812 -49.5 C 22.175781 -49.5 24.75 -50.234375 26.222656 -52.320312 C 27.691406 -54.28125 28.058594 -57.589844 28.058594 -62.613281 C 28.058594 -67.636719 27.691406 -71.1875 26.222656 -73.394531 C 24.75 -75.597656 22.175781 -76.578125 18.132812 -76.578125 Z M 18.132812 -49.5 "/></g></g></g><g fill="#ec1d27" fill-opacity="1"><g transform="translate(534.166183, 115.499995)"><g><path d="M 39.332031 -18.5 C 39.207031 -14.824219 38.472656 -11.519531 37.125 -8.699219 C 36.023438 -6.25 34.308594 -3.921875 31.855469 -2.082031 C 29.40625 -0.121094 26.097656 0.980469 21.6875 0.980469 C 17.277344 0.980469 13.84375 -0.121094 11.394531 -2.082031 C 8.945312 -3.921875 7.351562 -6.25 6.25 -8.699219 C 4.902344 -11.519531 4.164062 -14.824219 4.042969 -18.5 L 4.042969 -71.554688 C 4.164062 -75.109375 4.902344 -78.417969 6.25 -81.234375 C 7.351562 -83.6875 8.945312 -86.136719 11.394531 -87.976562 C 13.84375 -89.8125 17.277344 -91.039062 21.6875 -91.039062 C 26.097656 -91.039062 29.40625 -89.8125 31.855469 -87.976562 C 34.308594 -86.136719 36.023438 -83.6875 37.125 -81.234375 C 38.472656 -78.417969 39.207031 -75.109375 39.332031 -71.554688 Z M 26.097656 -71.554688 C 26.097656 -74.007812 25.609375 -75.722656 24.382812 -77.191406 C 23.769531 -77.804688 22.789062 -78.171875 21.6875 -78.171875 C 19.359375 -78.171875 18.257812 -76.457031 17.765625 -74.863281 C 17.398438 -73.882812 17.277344 -72.78125 17.277344 -71.554688 L 17.277344 -18.5 C 17.277344 -15.929688 17.890625 -14.214844 19.113281 -12.867188 C 19.726562 -12.253906 20.585938 -11.886719 21.6875 -11.886719 C 24.015625 -11.886719 25.117188 -13.355469 25.609375 -15.195312 C 25.976562 -16.050781 26.097656 -17.152344 26.097656 -18.5 Z M 26.097656 -71.554688 "/></g></g></g><g fill="#ec1d27" fill-opacity="1"><g transform="translate(597.265868, 115.499995)"><g><path d="M 4.902344 -90.058594 L 18.132812 -90.058594 C 23.894531 -90.058594 29.652344 -88.585938 34.0625 -84.421875 C 38.472656 -80.253906 41.414062 -73.394531 41.414062 -63.101562 C 41.414062 -52.808594 38.472656 -46.070312 34.0625 -41.90625 C 29.652344 -37.738281 23.894531 -36.023438 18.132812 -36.023438 L 18.132812 0 L 4.902344 0 Z M 18.132812 -49.5 C 22.175781 -49.5 24.75 -50.234375 26.222656 -52.320312 C 27.691406 -54.28125 28.058594 -57.589844 28.058594 -62.613281 C 28.058594 -67.636719 27.691406 -71.1875 26.222656 -73.394531 C 24.75 -75.597656 22.175781 -76.578125 18.132812 -76.578125 Z M 18.132812 -49.5 "/></g></g></g><g fill="#ec1d27" fill-opacity="1"><g transform="translate(660.120525, 115.499995)"><g><path d="M 39.332031 -30.875 L 39.332031 -18.5 C 39.207031 -14.824219 38.472656 -11.519531 37.125 -8.699219 C 36.023438 -6.25 34.308594 -3.921875 31.855469 -2.082031 C 29.40625 -0.121094 26.097656 0.980469 21.6875 0.980469 C 17.277344 0.980469 13.84375 -0.121094 11.394531 -2.082031 C 8.945312 -3.921875 7.351562 -6.25 6.25 -8.699219 C 4.902344 -11.519531 4.164062 -14.824219 4.042969 -18.5 L 4.042969 -71.554688 C 4.164062 -75.109375 4.902344 -78.417969 6.25 -81.234375 C 7.351562 -83.6875 8.945312 -86.136719 11.394531 -87.976562 C 13.84375 -89.8125 17.277344 -91.039062 21.6875 -91.039062 C 26.097656 -91.039062 29.40625 -89.8125 31.855469 -87.976562 C 34.308594 -86.136719 36.023438 -83.6875 37.125 -81.234375 C 38.472656 -78.417969 39.207031 -75.109375 39.332031 -71.554688 L 39.332031 -59.179688 L 26.957031 -59.179688 L 26.957031 -71.554688 C 26.957031 -74.007812 26.34375 -75.722656 24.996094 -77.191406 C 24.382812 -77.804688 23.28125 -78.171875 21.933594 -78.171875 C 19.605469 -78.171875 18.5 -76.457031 17.890625 -74.863281 C 17.519531 -73.882812 17.398438 -72.78125 17.277344 -71.554688 L 17.277344 -18.5 C 17.398438 -15.929688 18.132812 -14.214844 19.359375 -12.867188 C 19.972656 -12.253906 20.828125 -11.886719 21.933594 -11.886719 C 24.75 -11.886719 25.851562 -13.355469 26.464844 -15.195312 C 26.832031 -16.050781 26.957031 -17.152344 26.957031 -18.5 L 26.957031 -30.875 Z M 39.332031 -30.875 "/></g></g></g><g fill="#ec1d27" fill-opacity="1"><g transform="translate(722.24007, 115.499995)"><g><path d="M 39.332031 -18.5 C 39.207031 -14.824219 38.472656 -11.519531 37.125 -8.699219 C 36.023438 -6.25 34.308594 -3.921875 31.855469 -2.082031 C 29.40625 -0.121094 26.097656 0.980469 21.6875 0.980469 C 17.277344 0.980469 13.84375 -0.121094 11.394531 -2.082031 C 8.945312 -3.921875 7.351562 -6.25 6.25 -8.699219 C 4.902344 -11.519531 4.164062 -14.824219 4.042969 -18.5 L 4.042969 -71.554688 C 4.164062 -75.109375 4.902344 -78.417969 6.25 -81.234375 C 7.351562 -83.6875 8.945312 -86.136719 11.394531 -87.976562 C 13.84375 -89.8125 17.277344 -91.039062 21.6875 -91.039062 C 26.097656 -91.039062 29.40625 -89.8125 31.855469 -87.976562 C 34.308594 -86.136719 36.023438 -83.6875 37.125 -81.234375 C 38.472656 -78.417969 39.207031 -75.109375 39.332031 -71.554688 Z M 26.097656 -71.554688 C 26.097656 -74.007812 25.609375 -75.722656 24.382812 -77.191406 C 23.769531 -77.804688 22.789062 -78.171875 21.6875 -78.171875 C 19.359375 -78.171875 18.257812 -76.457031 17.765625 -74.863281 C 17.398438 -73.882812 17.277344 -72.78125 17.277344 -71.554688 L 17.277344 -18.5 C 17.277344 -15.929688 17.890625 -14.214844 19.113281 -12.867188 C 19.726562 -12.253906 20.585938 -11.886719 21.6875 -11.886719 C 24.015625 -11.886719 25.117188 -13.355469 25.609375 -15.195312 C 25.976562 -16.050781 26.097656 -17.152344 26.097656 -18.5 Z M 26.097656 -71.554688 "/></g></g></g><g fill="#ec1d27" fill-opacity="1"><g transform="translate(785.339767, 115.499995)"><g><path d="M 28.550781 0 L 21.6875 -37.984375 L 18.132812 -37.984375 L 18.132812 0 L 4.902344 0 L 4.902344 -90.058594 L 18.132812 -90.058594 C 33.941406 -90.058594 40.679688 -81.113281 40.679688 -64.082031 C 40.679688 -55.136719 38.351562 -47.050781 33.328125 -43.621094 L 41.78125 0 Z M 18.132812 -50.234375 C 19.972656 -50.234375 22.421875 -50.480469 24.382812 -52.195312 C 26.34375 -53.910156 27.9375 -57.21875 27.9375 -63.589844 C 27.9375 -69.964844 26.34375 -73.394531 24.382812 -75.109375 C 22.421875 -76.824219 19.972656 -76.949219 18.132812 -76.949219 Z M 18.132812 -50.234375 "/></g></g></g><g fill="#ec1d27" fill-opacity="1"><g transform="translate(849.297084, 115.499995)"><g><path d="M 18.871094 -46.929688 L 17.765625 -51.09375 L 17.03125 -51.09375 L 17.03125 0 L 4.902344 0 L 4.902344 -90.058594 L 16.664062 -90.058594 L 29.527344 -43.128906 L 30.632812 -38.964844 L 31.367188 -38.964844 L 31.367188 -90.058594 L 43.496094 -90.058594 L 43.496094 0 L 31.734375 0 Z M 18.871094 -46.929688 "/></g></g></g></svg>